<?xml version="1.0" encoding="UTF-8"?>
<svg width="18px" height="18px" viewBox="0 0 18 18" version="1.1" xmlns="http://www.w3.org/2000/svg" xmlns:xlink="http://www.w3.org/1999/xlink">
    <title>Shape</title>
    <g id="Page-1-Copy" stroke="none" stroke-width="1" fill="none" fill-rule="evenodd">
        <g id="lista-pazienti" transform="translate(-1347.000000, -182.000000)" fill="#FFFFFF" fill-rule="nonzero">
            <g id="Group-3-Copy-2" transform="translate(1176.000000, 169.000000)">
                <path d="M178.714286,13 C176.823429,13 175.285714,14.5377143 175.285714,16.4285714 C175.285714,18.3194286 176.823429,19.8571429 178.714286,19.8571429 C180.605143,19.8571429 182.142857,18.3194286 182.142857,16.4285714 C182.142857,14.5377143 180.605143,13 178.714286,13 Z M178.714286,14.7142857 C179.659714,14.7142857 180.428571,15.4831429 180.428571,16.4285714 C180.428571,17.374 179.659714,18.1428571 178.714286,18.1428571 C177.768857,18.1428571 177,17.374 177,16.4285714 C177,15.4831429 177.768857,14.7142857 178.714286,14.7142857 Z M183.857143,20.7142857 C182.303814,20.7142857 180.90821,21.4145234 179.963169,22.5122766 C179.517015,22.4608634 179.089853,22.4285714 178.714286,22.4285714 C176.022,22.4285714 171,23.7528571 171,26.2857143 L171,28.4285714 L179.414062,28.4285714 C180.307139,29.960938 181.965015,31 183.857143,31 C186.685714,31 189,28.6857143 189,25.8571429 C189,23.0285714 186.685714,20.7142857 183.857143,20.7142857 Z M183,23.2857143 L184.714286,23.2857143 L184.714286,25 L186.428571,25 L186.428571,26.7142857 L184.714286,26.7142857 L184.714286,28.4285714 L183,28.4285714 L183,26.7142857 L181.285714,26.7142857 L181.285714,25 L183,25 L183,23.2857143 Z M178.714286,24.1428571 C178.811433,24.1428571 178.911066,24.1578297 179.008929,24.161272 C178.821328,24.6934326 178.714286,25.2628934 178.714286,25.8571429 C178.714286,26.1496737 178.745454,26.4347474 178.792969,26.7142857 L172.714286,26.7142857 L172.714286,26.2857143 C172.714286,25.5408571 175.892571,24.1428571 178.714286,24.1428571 Z" id="Shape"></path>
            </g>
        </g>
    </g>
</svg>