<?xml version="1.0" encoding="UTF-8"?>
<svg width="19px" height="20px" viewBox="0 0 19 20" version="1.1" xmlns="http://www.w3.org/2000/svg" xmlns:xlink="http://www.w3.org/1999/xlink">
    <title>Shape</title>
    <g id="Page-1-Copy" stroke="none" stroke-width="1" fill="none" fill-rule="evenodd">
        <g id="lista-pazienti-copy" transform="translate(-1187.000000, -976.000000)" fill="#FFFFFF" fill-rule="nonzero">
            <g id="Group-3-Copy-13" transform="translate(1170.000000, 964.000000)">
                <g id="icons8-online_support" transform="translate(17.000000, 12.000000)">
                    <path d="M9,0 C4.593562,0 1,3.593562 1,8 L1,9 L1,9.902344 C0.426291,10.449411 0,11.153146 0,12 C0,13.241968 0.8575508,14.162904 1.9433594,14.613281 C3.2443933,17.723094 5.8502365,20 9,20 L12,20 L12,18 L9,18 C6.7415517,18 4.6909574,16.299502 3.6601562,13.613281 L3.4472656,13.0625 L2.8613281,12.980469 C2.3688308,12.912712 2,12.515121 2,12 C2,11.615008 2.1944088,11.312973 2.4980469,11.138672 L3,10.851562 L3,10 L3,9 C3,8.43497 3.4349698,8 4,8 L14,8 C14.56503,8 15,8.43497 15,9 L15,10 L15,14 L10.912109,14 C10.7004754,13.4014079 10.1349019,13.000891 9.5,13 C9.10217527,13 8.7206444,13.1580353 8.43933983,13.4393398 C8.15803526,13.7206444 8,14.1021753 8,14.5 C8.00105198,15.2859723 8.60862299,15.9378545 9.392578,15.994141 C9.42825428,15.9980199 9.46411348,15.9999757 9.5,16 L16,16 L17,16 C18.1,16 19,15.1 19,14 L19,12 C19,10.9 18.1,10 17,10 L17,9 L17,8 C17,3.593562 13.406438,0 9,0 Z M9,2 C11.655588,2 13.890622,3.7073783 14.685547,6.0878906 C14.464195,6.0350364 14.236504,6 14,6 L4,6 C3.7634959,6 3.5358051,6.0350364 3.3144531,6.0878906 C4.1093779,3.7073783 6.3444124,2 9,2 Z" id="Shape"></path>
                </g>
            </g>
        </g>
    </g>
</svg>