<?xml version="1.0" encoding="UTF-8"?>
<svg width="18px" height="18px" viewBox="0 0 18 18" version="1.1" xmlns="http://www.w3.org/2000/svg" xmlns:xlink="http://www.w3.org/1999/xlink">
    <title>Shape</title>
    <g id="Page-1-Copy" stroke="none" stroke-width="1" fill="none" fill-rule="evenodd">
        <g id="lista-pazienti-copy-2" transform="translate(-1368.000000, -457.000000)" fill="#FFFFFF" fill-rule="nonzero">
            <g id="Group-16-Copy-3" transform="translate(1359.000000, 448.000000)">
                <g id="icons8-pencil" transform="translate(9.000000, 9.000000)">
                    <path d="M14.6025796,0 C14.3600569,0 14.1175048,0.09281108 13.9327707,0.277545285 L1.89470882,12.3156073 C1.89470882,12.3156073 2.8468,12.3203441 3.31574044,12.7892845 C3.78468087,13.258225 3.77461523,14.1955137 3.77461523,14.1955137 C3.77461523,14.1955137 4.73961411,14.2131582 5.21044926,14.6839934 C5.6812844,15.1548285 5.68412646,16.105025 5.68412646,16.105025 L17.7221883,4.06696293 C18.0926039,3.69654726 18.0926039,3.0968128 17.7221883,2.72734449 L15.2723895,0.277545285 C15.0876554,0.0928111747 14.8451033,0 14.6025796,0 Z M14.6025796,2.28697276 L15.7127615,3.39715371 L14.7191487,4.39076563 L13.6089678,3.28058468 L14.6025796,2.28697276 Z M12.2693499,4.62020303 L13.3795309,5.73038398 L6.12079763,12.9891176 C5.88301168,12.8261726 5.63254008,12.7026907 5.38622793,12.6079552 C5.2933872,12.3635378 5.17166693,12.1157752 5.01061669,11.8789357 L12.2693499,4.62020303 Z M0.634653466,14.2103162 L0,17.9997338 L3.78941764,17.3650802 L0.634653466,14.2103162 Z" id="Shape"></path>
                </g>
            </g>
        </g>
    </g>
</svg>