<?xml version="1.0" encoding="UTF-8"?>
<svg width="20px" height="20px" viewBox="0 0 20 20" version="1.1" xmlns="http://www.w3.org/2000/svg" xmlns:xlink="http://www.w3.org/1999/xlink">
    <title>Shape</title>
    <g id="Page-1-Copy" stroke="none" stroke-width="1" fill="none" fill-rule="evenodd">
        <g id="lista-pazienti-copy" transform="translate(-1378.000000, -148.000000)" fill="#FFFFFF">
            <g id="Group-15" transform="translate(1370.000000, 140.000000)">
                <g id="icons8-info" transform="translate(8.000000, 8.000000)">
                    <path d="M10,0 C4.4889971,0 0,4.4889971 0,10 C0,15.511003 4.4889971,20 10,20 C15.511003,20 20,15.511003 20,10 C20,4.4889971 15.511003,0 10,0 Z M10,2 C14.430123,2 18,5.5698774 18,10 C18,14.430123 14.430123,18 10,18 C5.5698774,18 2,14.430123 2,10 C2,5.5698774 5.5698774,2 10,2 Z M9,5 L9,7 L11,7 L11,5 L9,5 Z M9,9 L9,15 L11,15 L11,9 L9,9 Z" id="Shape"></path>
                </g>
            </g>
        </g>
    </g>
</svg>