<?xml version="1.0" encoding="UTF-8"?>
<svg width="18px" height="16px" viewBox="0 0 18 16" version="1.1" xmlns="http://www.w3.org/2000/svg" xmlns:xlink="http://www.w3.org/1999/xlink">
    <title>Shape</title>
    <g id="Page-1-Copy" stroke="none" stroke-width="1" fill="none" fill-rule="evenodd">
        <g id="lista-pazienti-copy-2" transform="translate(-1326.000000, -154.000000)" fill="#FFFFFF" fill-rule="nonzero">
            <g id="Group-16-Copy-2" transform="translate(1317.000000, 144.000000)">
                <g id="icons8-questionnaire" transform="translate(9.000000, 10.000000)">
                    <path d="M1,0 C0.44771525,0 0,0.44771525 0,1 C0,1.55228475 0.44771525,2 1,2 C1.55228475,2 2,1.55228475 2,1 C2,0.44771525 1.55228475,0 1,0 Z M4,0 L4,2 L18,2 L18,0 L4,0 Z M1,4 C0.44771525,4 0,4.44771525 0,5 C0,5.55228475 0.44771525,6 1,6 C1.55228475,6 2,5.55228475 2,5 C2,4.44771525 1.55228475,4 1,4 Z M4,4 L4,6 L18,6 L18,4 L4,4 Z M1,10 C0.44771525,10 0,10.4477153 0,11 C0,11.5522847 0.44771525,12 1,12 C1.55228475,12 2,11.5522847 2,11 C2,10.4477153 1.55228475,10 1,10 Z M4,10 L4,12 L18,12 L18,10 L4,10 Z M1,14 C0.44771525,14 0,14.4477153 0,15 C0,15.5522847 0.44771525,16 1,16 C1.55228475,16 2,15.5522847 2,15 C2,14.4477153 1.55228475,14 1,14 Z M4,14 L4,16 L18,16 L18,14 L4,14 Z" id="Shape"></path>
                </g>
            </g>
        </g>
    </g>
</svg>