<?xml version="1.0" encoding="UTF-8"?>
<svg width="4px" height="18px" viewBox="0 0 4 18" version="1.1" xmlns="http://www.w3.org/2000/svg" xmlns:xlink="http://www.w3.org/1999/xlink">
    <title>Shape</title>
    <g id="Page-1-Copy" stroke="none" stroke-width="1" fill="none" fill-rule="evenodd">
        <g id="lista-pazienti" transform="translate(-1355.000000, -446.000000)" fill="#FFFFFF" fill-rule="nonzero">
            <g id="icons8-menu_vertical" transform="translate(1355.000000, 446.000000)">
                <path d="M1,0 C0.448,0 0,0.448 0,1 L0,3 C0,3.552 0.448,4 1,4 L3,4 C3.552,4 4,3.552 4,3 L4,1 C4,0.448 3.552,0 3,0 L1,0 Z M1,7 C0.448,7 0,7.448 0,8 L0,10 C0,10.552 0.448,11 1,11 L3,11 C3.552,11 4,10.552 4,10 L4,8 C4,7.448 3.552,7 3,7 L1,7 Z M1,14 C0.448,14 0,14.448 0,15 L0,17 C0,17.552 0.448,18 1,18 L3,18 C3.552,18 4,17.552 4,17 L4,15 C4,14.448 3.552,14 3,14 L1,14 Z" id="Shape"></path>
            </g>
        </g>
    </g>
</svg>