<?xml version="1.0" encoding="UTF-8"?>
<svg width="18px" height="18px" viewBox="0 0 18 18" version="1.1" xmlns="http://www.w3.org/2000/svg" xmlns:xlink="http://www.w3.org/1999/xlink">
    <title>Shape</title>
    <g id="Page-1-Copy" stroke="none" stroke-width="1" fill="none" fill-rule="evenodd">
        <g id="lista-pazienti-copy-2" transform="translate(-1368.000000, -153.000000)" fill="#FFFFFF" fill-rule="nonzero">
            <g id="Group-16-Copy" transform="translate(1359.000000, 144.000000)">
                <g id="icons8-save" transform="translate(9.000000, 9.000000)">
                    <path d="M2,0 C0.9057453,0 0,0.9057453 0,2 L0,16 C0,17.094255 0.9057453,18 2,18 L16,18 C17.094255,18 18,17.094255 18,16 L18,4 L14,0 L2,0 Z M2,2 L13.171875,2 L16,4.828125 L16,16 L2,16 L2,2 Z M4,4 L4,7 L12,7 L12,4 L4,4 Z M8.5,9 C7.11928813,9 6,10.1192881 6,11.5 C6,12.8807119 7.11928813,14 8.5,14 C9.88071187,14 11,12.8807119 11,11.5 C11,10.8369588 10.7366079,10.201074 10.267767,9.73223305 C9.79892601,9.2633921 9.16304122,9 8.5,9 L8.5,9 Z" id="Shape"></path>
                </g>
            </g>
        </g>
    </g>
</svg>