<?xml version="1.0" encoding="UTF-8"?>
<svg width="20px" height="20px" viewBox="0 0 20 20" version="1.1" xmlns="http://www.w3.org/2000/svg" xmlns:xlink="http://www.w3.org/1999/xlink">
    <title>Group 17</title>
    <g id="Page-1-Copy" stroke="none" stroke-width="1" fill="none" fill-rule="evenodd">
        <g id="lista-pazienti-copy-2" transform="translate(-285.000000, -733.000000)" fill="#D94BA6">
            <g id="Group-17" transform="translate(285.000000, 733.000000)">
                <path d="M10,0 C4.486,0 0,4.486 0,10 C0,15.514 4.486,20 10,20 C15.514,20 20,15.514 20,10 C20,8.874 19.803984,7.7942031 19.458984,6.7832031 L17.839844,8.402344 C17.944844,8.918344 18,9.453 18,10 C18,14.411 14.411,18 10,18 C5.589,18 2,14.411 2,10 C2,5.589 5.589,2 10,2 C11.633,2 13.151922,2.4938906 14.419922,3.3378906 L15.851562,1.90625 C14.203562,0.71225 12.185,0 10,0 Z M17.0710678,2.92893219 C13.172081,-0.970054603 6.82791898,-0.970054603 2.92893219,2.92893219 C-0.970054603,6.82791898 -0.970054603,13.172081 2.92893219,17.0710678 C6.82791898,20.9700546 13.172081,20.9700546 17.0710678,17.0710678 C17.86727,16.2748656 18.4921975,15.3727296 18.9631306,14.4138928 L16.6733202,14.4138935 C16.3826994,14.8530068 16.0436417,15.2700668 15.6568542,15.6568542 C12.5378062,18.7759023 7.46219376,18.7759023 4.34314575,15.6568542 C1.22409774,12.5378062 1.22409774,7.46219376 4.34314575,4.34314575 C7.46219376,1.22409774 12.5378062,1.22409774 15.6568542,4.34314575 C16.8115596,5.49785112 17.5363663,6.92112456 17.8361796,8.41453408 L19.8608247,8.41453366 C19.5397982,6.40493619 18.6160961,4.47396051 17.0710678,2.92893219 Z" id="Shape" fill-rule="nonzero"></path>
                <rect id="Rectangle" x="6" y="9" width="9" height="2"></rect>
            </g>
        </g>
    </g>
</svg>